<svg xmlns="http://www.w3.org/2000/svg" width="22" height="22" viewBox="0 0 22 22"><g transform="translate(-545 -861)"><rect width="22" height="22" transform="translate(545 861)" fill="rgba(255,255,255,0)"/><path d="M18.094,9,8.725,3.46a3.231,3.231,0,0,0-3.333.009A3.443,3.443,0,0,0,3.75,6.46V17.58A3.37,3.37,0,0,0,7.067,21a3.25,3.25,0,0,0,1.658-.46L18.094,15a3.474,3.474,0,0,0,0-5.92Zm-.97,4.19L7.756,18.81a1.36,1.36,0,0,1-1.377,0,1.429,1.429,0,0,1-.689-1.23V6.42A1.391,1.391,0,0,1,7.067,5a1.459,1.459,0,0,1,.689.19l9.369,5.58a1.442,1.442,0,0,1,0,2.46Z" transform="translate(544.25 859.998)" fill="#df8b21"/></g></svg>