<svg xmlns="http://www.w3.org/2000/svg" xmlns:xlink="http://www.w3.org/1999/xlink" width="32" height="32" viewBox="0 0 32 32"><defs><radialGradient id="a" cx="0.205" cy="0.874" r="1.103" gradientTransform="translate(0)" gradientUnits="objectBoundingBox"><stop offset="0" stop-color="#df8b21"/><stop offset="1" stop-color="#df8b21"/></radialGradient><linearGradient id="b" x1="0.369" y1="0.426" x2="-1.54" y2="-0.648" gradientUnits="objectBoundingBox"><stop offset="0" stop-color="#a1b5d8" stop-opacity="0"/><stop offset="0.309" stop-color="#90a2bd" stop-opacity="0.31"/><stop offset="0.755" stop-color="#7c8b9c" stop-opacity="0.757"/><stop offset="1" stop-color="#748290"/></linearGradient></defs><g transform="translate(0 -2)"><path d="M31.452,5.724A5.826,5.826,0,0,0,26.276.548a96.652,96.652,0,0,0-20.552,0A5.827,5.827,0,0,0,.547,5.724a96.652,96.652,0,0,0,0,20.552,5.827,5.827,0,0,0,5.176,5.176,96.653,96.653,0,0,0,20.553,0,5.827,5.827,0,0,0,5.176-5.176,96.651,96.651,0,0,0,0-20.552Zm0,0" transform="translate(0.001 2)" fill="url(#a)"/><path d="M56.989,33.958a5.216,5.216,0,0,0-4.633-4.633,86.553,86.553,0,0,0-18.4,0,5.216,5.216,0,0,0-4.633,4.633,86.551,86.551,0,0,0,0,18.4,5.216,5.216,0,0,0,4.633,4.633,86.519,86.519,0,0,0,18.4,0,5.216,5.216,0,0,0,4.633-4.633,86.519,86.519,0,0,0,0-18.4Zm0,0" transform="translate(-27.156 -25.157)" fill="url(#b)"/><path d="M512,256" transform="translate(-480 -238.125)" fill="#4a7aff"/><path d="M154.327,71.353v3.062s-3.527-.51-3.527,1.758v2.268h3.186l-.4,3.459H150.8v9.015h-3.527V81.9l-3.015-.057v-3.4h2.958V75.833a4.453,4.453,0,0,1,3.641-4.593A10.282,10.282,0,0,1,154.327,71.353Zm0,0" transform="translate(-133.291 -63.001)" fill="#fff"/></g></svg>