<svg xmlns="http://www.w3.org/2000/svg" xmlns:xlink="http://www.w3.org/1999/xlink" width="32" height="32" viewBox="0 0 32 32"><defs><radialGradient id="a" cx="0.5" cy="0.5" r="0.5" gradientUnits="objectBoundingBox"><stop offset="0" stop-color="#df8b21"/><stop offset="1" stop-color="#df8b21"/></radialGradient><linearGradient id="b" x1="0.369" y1="0.426" x2="-1.54" y2="-0.648" gradientUnits="objectBoundingBox"><stop offset="0" stop-color="#a1b5d8" stop-opacity="0"/><stop offset="0.309" stop-color="#90a2bd" stop-opacity="0.31"/><stop offset="0.755" stop-color="#7c8b9c" stop-opacity="0.757"/><stop offset="1" stop-color="#748290"/></linearGradient></defs><g transform="translate(0 -6)"><path d="M31.452,5.724A5.826,5.826,0,0,0,26.276.548a96.652,96.652,0,0,0-20.553,0A5.827,5.827,0,0,0,.547,5.724a96.652,96.652,0,0,0,0,20.553,5.827,5.827,0,0,0,5.176,5.176,96.654,96.654,0,0,0,20.553,0,5.827,5.827,0,0,0,5.176-5.176,96.65,96.65,0,0,0,0-20.553Zm0,0" transform="translate(0.001 6)" fill="url(#a)"/><path d="M56.727,33.91a5.167,5.167,0,0,0-4.59-4.59,85.747,85.747,0,0,0-18.227,0,5.168,5.168,0,0,0-4.59,4.59,85.745,85.745,0,0,0,0,18.227,5.167,5.167,0,0,0,4.59,4.59,85.712,85.712,0,0,0,18.227,0,5.167,5.167,0,0,0,4.59-4.59A85.714,85.714,0,0,0,56.727,33.91Zm0,0" transform="translate(-27.023 -21.024)" fill="url(#b)"/><g transform="translate(5.593 14.087)" opacity="0.1"><path d="M91.322,135.987H109.9l.25,15.842h-19.1l-.861-13.748Z" transform="translate(-90.181 -135.987)" fill="#fff"/></g><g transform="translate(15.968 14.087)" opacity="0.1"><path d="M265.3,135.987H256v15.842h9.552l.126-13.288Z" transform="translate(-256 -135.987)" fill="#fff"/></g><g transform="translate(4.138 14.087)"><path d="M87.247,151.828v-13.18a.274.274,0,0,0-.146-.244.249.249,0,0,0-.278.021l-9.067,7.661-9.067-7.661a.249.249,0,0,0-.278-.021.274.274,0,0,0-.146.244v13.18a2.379,2.379,0,0,1-2.371-2.386v-10.8a2.647,2.647,0,0,1,1.435-2.363,2.614,2.614,0,0,1,2.745.208l7.682,6.658,7.682-6.658a2.614,2.614,0,0,1,2.775-.192,2.7,2.7,0,0,1,1.405,2.4v10.75a2.379,2.379,0,0,1-2.371,2.386Z" transform="translate(-65.894 -135.987)" fill="#fff"/></g><g transform="translate(15.924 14.087)"><path d="M266.524,136.3a2.645,2.645,0,0,0-2.792.192L256,143.141v2.94l9.125-7.655a.252.252,0,0,1,.28-.021.274.274,0,0,1,.147.244v13.18a2.386,2.386,0,0,0,2.386-2.386v-10.75A2.7,2.7,0,0,0,266.524,136.3Z" transform="translate(-256 -135.988)" fill="#fff"/></g></g></svg>