<svg xmlns="http://www.w3.org/2000/svg" xmlns:xlink="http://www.w3.org/1999/xlink" width="32" height="32" viewBox="0 0 32 32"><defs><linearGradient id="a" x1="0.369" y1="0.426" x2="-1.54" y2="-0.648" gradientUnits="objectBoundingBox"><stop offset="0" stop-color="#a1b5d8" stop-opacity="0"/><stop offset="0.309" stop-color="#90a2bd" stop-opacity="0.31"/><stop offset="0.755" stop-color="#7c8b9c" stop-opacity="0.757"/><stop offset="1" stop-color="#748290"/></linearGradient><linearGradient id="b" x1="0.5" y1="0.413" x2="0.5" y2="1.193" gradientUnits="objectBoundingBox"><stop offset="0" stop-color="#fae100" stop-opacity="0"/><stop offset="0.307" stop-color="#fca800" stop-opacity="0.306"/><stop offset="0.627" stop-color="#fe7300" stop-opacity="0.627"/><stop offset="0.868" stop-color="#ff5200" stop-opacity="0.867"/><stop offset="1" stop-color="#ff4500"/></linearGradient><linearGradient id="c" x1="0.816" y1="0.182" x2="0.172" y2="0.835" gradientUnits="objectBoundingBox"><stop offset="0" stop-color="#833ab4"/><stop offset="0.092" stop-color="#9c3495"/><stop offset="0.293" stop-color="#dc2546"/><stop offset="0.392" stop-color="#fd1d1d"/><stop offset="0.559" stop-color="#fc6831"/><stop offset="0.689" stop-color="#fc9b40"/><stop offset="0.752" stop-color="#fcaf45"/><stop offset="0.781" stop-color="#fdb750"/><stop offset="0.866" stop-color="#fecb6a"/><stop offset="0.942" stop-color="#ffd87a"/><stop offset="1" stop-color="#ffdc80"/></linearGradient></defs><g transform="translate(0 0)"><path d="M31.452,5.724A5.826,5.826,0,0,0,26.276.548a96.652,96.652,0,0,0-20.553,0A5.827,5.827,0,0,0,.547,5.724a96.652,96.652,0,0,0,0,20.553,5.827,5.827,0,0,0,5.176,5.176,96.654,96.654,0,0,0,20.553,0,5.827,5.827,0,0,0,5.176-5.176,96.651,96.651,0,0,0,0-20.553Zm0,0" fill="#e98c15"/><path d="M56.743,33.913a5.17,5.17,0,0,0-4.593-4.593,85.8,85.8,0,0,0-18.238,0,5.171,5.171,0,0,0-4.593,4.593,85.8,85.8,0,0,0,0,18.238,5.171,5.171,0,0,0,4.593,4.593,85.765,85.765,0,0,0,18.238,0,5.17,5.17,0,0,0,4.593-4.593,85.766,85.766,0,0,0,0-18.238Zm0,0" transform="translate(-27.032 -27.032)" fill="url(#a)"/><path d="M7.672,409.805q.033.332.068.664a5.827,5.827,0,0,0,5.176,5.176,96.652,96.652,0,0,0,20.553,0,5.827,5.827,0,0,0,5.176-5.176q.036-.332.069-.664Zm0,0" transform="translate(-7.193 -384.192)" fill="url(#b)"/><path d="M95.09,103.353c.067-.471.117-.944.2-1.411a5.176,5.176,0,0,1,5.033-4.54c3.226-.111,6.461-.117,9.687,0a5.184,5.184,0,0,1,5.119,5.181q.145,4.646,0,9.3a5.183,5.183,0,0,1-5.119,5.181c-3.225.116-6.462.119-9.687,0a5.273,5.273,0,0,1-5.128-5.2c-.017-.253-.071-.5-.108-.755Zm10.06,11.982c1.476,0,2.954.044,4.428-.01a3.6,3.6,0,0,0,3.787-3.774q.1-4.316,0-8.636a3.579,3.579,0,0,0-3.787-3.769q-4.4-.093-8.8,0A3.557,3.557,0,0,0,97,102.86q-.119,4.37,0,8.746a3.581,3.581,0,0,0,3.781,3.719c1.456.054,2.915.01,4.372.01Zm0,0" transform="translate(-89.147 -91.235)" fill="url(#c)"/><g transform="translate(5.943 6.082)"><path d="M95.09,103.353c.067-.471.117-.944.2-1.411a5.176,5.176,0,0,1,5.033-4.54c3.226-.111,6.461-.117,9.687,0a5.184,5.184,0,0,1,5.119,5.181q.145,4.646,0,9.3a5.183,5.183,0,0,1-5.119,5.181c-3.225.116-6.462.119-9.687,0a5.273,5.273,0,0,1-5.128-5.2c-.017-.253-.071-.5-.108-.755Zm10.06,11.982c1.476,0,2.954.044,4.428-.01a3.6,3.6,0,0,0,3.787-3.774q.1-4.316,0-8.636a3.579,3.579,0,0,0-3.787-3.769q-4.4-.093-8.8,0A3.557,3.557,0,0,0,97,102.86q-.119,4.37,0,8.746a3.581,3.581,0,0,0,3.781,3.719c1.456.054,2.915.01,4.372.01Zm0,0" transform="translate(-95.09 -97.317)" fill="#fff"/><path d="M179.118,174a5.125,5.125,0,1,0,5.125,5.125A5.125,5.125,0,0,0,179.118,174Zm0,8.486a3.361,3.361,0,1,1,3.361-3.361A3.361,3.361,0,0,1,179.118,182.482Zm0,0" transform="translate(-169.061 -169.204)" fill="#fff"/><path d="M325.724,151.962a1.219,1.219,0,1,1-1.219-1.219A1.219,1.219,0,0,1,325.724,151.962Zm0,0" transform="translate(-309.023 -147.403)" fill="#fff"/></g></g></svg>