<svg xmlns="http://www.w3.org/2000/svg" xmlns:xlink="http://www.w3.org/1999/xlink" width="32" height="32" viewBox="0 0 32 32"><defs><linearGradient id="a" x1="0.738" y1="0.628" x2="-0.899" y2="-0.25" gradientUnits="objectBoundingBox"><stop offset="0" stop-color="#df8b21"/><stop offset="1" stop-color="#ff8e00"/></linearGradient></defs><g transform="translate(0 0.001)"><path d="M26.276,31.451a96.653,96.653,0,0,1-20.552,0A5.827,5.827,0,0,1,.548,26.275a96.65,96.65,0,0,1,0-20.552A5.827,5.827,0,0,1,5.723.547a96.65,96.65,0,0,1,20.552,0,5.827,5.827,0,0,1,5.176,5.176,96.65,96.65,0,0,1,0,20.552,5.826,5.826,0,0,1-5.176,5.176Zm0,0" fill="#df8b21"/><path d="M56.743,33.913A5.17,5.17,0,0,0,52.15,29.32a85.8,85.8,0,0,0-18.238,0,5.171,5.171,0,0,0-4.593,4.593,85.8,85.8,0,0,0,0,18.237,5.17,5.17,0,0,0,4.593,4.593,85.764,85.764,0,0,0,18.237,0,5.17,5.17,0,0,0,4.593-4.593,85.764,85.764,0,0,0,0-18.237Zm0,0" transform="translate(-27.032 -27.033)" fill="url(#a)"/><path d="M7.672,409.8q.033.332.068.664a5.827,5.827,0,0,0,5.176,5.176,96.648,96.648,0,0,0,20.552,0,5.826,5.826,0,0,0,5.176-5.176q.036-.332.069-.664Zm0,0" transform="translate(-7.193 -384.193)" fill="#df8b21"/><path d="M117.152,128.612a7.461,7.461,0,0,1-2.128.591l-.009-.05a3.959,3.959,0,0,0,1.57-2.143,7.927,7.927,0,0,1-1.895.792,5.466,5.466,0,0,1-.668.137,4.125,4.125,0,0,0-7.077,2.88c0,.082,0,.164.008.244a3.973,3.973,0,0,0,.075.58,11.528,11.528,0,0,1-8.38-4.185,4.079,4.079,0,0,0,1.251,5.393,4.3,4.3,0,0,1-1.915-.508,4.125,4.125,0,0,0,3.361,4.064,3.9,3.9,0,0,1-1.876.039,3.978,3.978,0,0,0,3.752,2.853,8.218,8.218,0,0,1-5.9,1.757A11.656,11.656,0,0,0,115.2,131.2q0-.12,0-.241c0-.048,0-.095,0-.143s0-.067,0-.1A7.292,7.292,0,0,0,117.152,128.612Zm0,0" transform="translate(-91.235 -118.777)" fill="#fff"/></g></svg>